<svg xmlns="http://www.w3.org/2000/svg" viewBox="0 14.100000381469727 182.60000610351562 32.45000076293945" data-asc="0.92" width="182.60000610351562" height="32.45000076293945"><defs/><g fill="#000000"><g transform="translate(0, 0)"><path d="M8.80 46.55L8.80 20.95L6.35 20.95L6.35 25.20L0 25.20L0 18.40L4.40 18.40L4.40 14.10L19.60 14.10L19.60 18.40L24.05 18.40L24.05 25.20L17.65 25.20L17.65 20.95L15.20 20.95L15.20 46.55L8.80 46.55ZM30.15 46.55L30.15 26.95L34.55 26.95L34.55 22.65L49.75 22.65L49.75 26.95L54.20 26.95L54.20 33.70L47.80 33.70L47.80 29.45L36.50 29.45L36.50 46.55L30.15 46.55ZM63.70 46.55L63.70 42.30L59.30 42.30L59.30 22.65L65.65 22.65L65.65 39.75L76.95 39.75L76.95 22.65L83.35 22.65L83.35 42.30L78.90 42.30L78.90 46.55L63.70 46.55ZM93.85 46.55L93.85 42.30L89.45 42.30L89.45 26.95L93.85 26.95L93.85 22.65L109.05 22.65L109.05 26.95L113.50 26.95L113.50 33.70L107.10 33.70L107.10 29.45L95.80 29.45L95.80 31.15L104.65 31.15L104.65 38L95.80 38L95.80 39.75L107.10 39.75L107.10 35.40L113.50 35.40L113.50 42.25L109.05 42.25L109.05 46.55L93.85 46.55ZM119.60 46.55L119.60 18.40L124.00 18.40L124.00 14.10L130.35 14.10L130.35 18.40L134.80 18.40L134.80 26.95L137.25 26.95L137.25 18.40L141.70 18.40L141.70 14.10L148.10 14.10L148.10 18.40L152.45 18.40L152.45 46.55L146.15 46.55L146.15 20.95L143.65 20.95L143.65 29.45L139.20 29.45L139.20 42.30L132.85 42.30L132.85 29.45L128.40 29.45L128.40 20.95L125.95 20.95L125.95 46.55L119.60 46.55ZM162.95 46.55L162.95 42.30L158.55 42.30L158.55 14.10L164.90 14.10L164.90 39.75L176.20 39.75L176.20 35.45L182.60 35.45L182.60 42.30L178.15 42.30L178.15 46.55L162.95 46.55Z"/></g></g></svg>