<svg xmlns="http://www.w3.org/2000/svg" shape-rendering="crispEdges" viewBox="40 60 540 100"><rect x="40" y="60" width="60" height="20" fill="#000000"/><rect x="120" y="60" width="60" height="20" fill="#000000"/><rect x="220" y="60" width="20" height="20" fill="#000000"/><rect x="280" y="60" width="20" height="20" fill="#000000"/><rect x="320" y="60" width="60" height="20" fill="#000000"/><rect x="400" y="60" width="20" height="20" fill="#000000"/><rect x="480" y="60" width="20" height="20" fill="#000000"/><rect x="520" y="60" width="20" height="20" fill="#000000"/><rect x="60" y="80" width="20" height="20" fill="#000000"/><rect x="120" y="80" width="20" height="20" fill="#000000"/><rect x="180" y="80" width="20" height="20" fill="#000000"/><rect x="220" y="80" width="20" height="20" fill="#000000"/><rect x="280" y="80" width="20" height="20" fill="#000000"/><rect x="320" y="80" width="20" height="20" fill="#000000"/><rect x="400" y="80" width="40" height="20" fill="#000000"/><rect x="460" y="80" width="40" height="20" fill="#000000"/><rect x="520" y="80" width="20" height="20" fill="#000000"/><rect x="60" y="100" width="20" height="20" fill="#000000"/><rect x="120" y="100" width="60" height="20" fill="#000000"/><rect x="220" y="100" width="20" height="20" fill="#000000"/><rect x="280" y="100" width="20" height="20" fill="#000000"/><rect x="320" y="100" width="60" height="20" fill="#000000"/><rect x="400" y="100" width="20" height="20" fill="#000000"/><rect x="440" y="100" width="20" height="20" fill="#000000"/><rect x="480" y="100" width="20" height="20" fill="#000000"/><rect x="520" y="100" width="20" height="20" fill="#000000"/><rect x="60" y="120" width="20" height="20" fill="#000000"/><rect x="120" y="120" width="20" height="20" fill="#000000"/><rect x="160" y="120" width="20" height="20" fill="#000000"/><rect x="220" y="120" width="20" height="20" fill="#000000"/><rect x="280" y="120" width="20" height="20" fill="#000000"/><rect x="320" y="120" width="20" height="20" fill="#000000"/><rect x="400" y="120" width="20" height="20" fill="#000000"/><rect x="480" y="120" width="20" height="20" fill="#000000"/><rect x="520" y="120" width="20" height="20" fill="#000000"/><rect x="60" y="140" width="20" height="20" fill="#000000"/><rect x="120" y="140" width="20" height="20" fill="#000000"/><rect x="180" y="140" width="20" height="20" fill="#000000"/><rect x="240" y="140" width="40" height="20" fill="#000000"/><rect x="320" y="140" width="60" height="20" fill="#000000"/><rect x="400" y="140" width="20" height="20" fill="#000000"/><rect x="480" y="140" width="20" height="20" fill="#000000"/><rect x="520" y="140" width="60" height="20" fill="#000000"/></svg>