<svg xmlns="http://www.w3.org/2000/svg" viewBox="0 14.100000381469727 199.5 41" data-asc="0.92" width="199.5" height="41"><defs/><g fill="#ffffff"><g transform="translate(0, 0)"><path d="M8.80 46.55L8.80 42.30L4.40 42.30L4.40 29.45L0 29.45L0 22.65L4.40 22.65L4.40 14.10L10.75 14.10L10.75 22.65L24.05 22.65L24.05 29.45L10.75 29.45L10.75 39.75L22.10 39.75L22.10 35.45L28.50 35.45L28.50 42.30L24.05 42.30L24.05 46.55L8.80 46.55ZM34.60 46.55L34.60 22.65L40.95 22.65L40.95 46.55L34.60 46.55M34.60 20.95L34.60 14.10L40.95 14.10L40.95 20.95L34.60 20.95ZM46.05 46.55L46.05 22.65L65.65 22.65L65.65 26.95L70.10 26.95L70.10 46.55L63.70 46.55L63.70 29.45L52.40 29.45L52.40 46.55L46.05 46.55ZM80.60 55.10L80.60 50.85L76.20 50.85L76.20 44.05L82.55 44.05L82.55 48.30L93.90 48.30L93.90 42.30L80.60 42.30L80.60 38L76.20 38L76.20 22.65L82.55 22.65L82.55 35.45L93.90 35.45L93.90 22.65L100.25 22.65L100.25 50.85L95.85 50.85L95.85 55.10L80.60 55.10ZM106.35 46.55L106.35 18.40L110.75 18.40L110.75 14.10L117.10 14.10L117.10 18.40L121.55 18.40L121.55 26.95L124.00 26.95L124.00 18.40L128.45 18.40L128.45 14.10L134.85 14.10L134.85 18.40L139.20 18.40L139.20 46.55L132.90 46.55L132.90 20.95L130.40 20.95L130.40 29.45L125.95 29.45L125.95 42.30L119.60 42.30L119.60 29.45L115.15 29.45L115.15 20.95L112.70 20.95L112.70 46.55L106.35 46.55ZM149.70 46.55L149.70 42.30L145.30 42.30L145.30 14.10L151.65 14.10L151.65 39.75L162.95 39.75L162.95 35.45L169.35 35.45L169.35 42.30L164.90 42.30L164.90 46.55L149.70 46.55ZM175.45 46.55L175.45 39.75L179.85 39.75L179.85 35.45L184.25 35.45L184.25 33.70L179.85 33.70L179.85 29.45L175.45 29.45L175.45 22.65L181.80 22.65L181.80 26.95L186.20 26.95L186.20 31.15L188.70 31.15L188.70 26.95L193.10 26.95L193.10 22.65L199.50 22.65L199.50 29.45L195.05 29.45L195.05 33.70L190.65 33.70L190.65 35.45L195.05 35.45L195.05 39.75L199.50 39.75L199.50 46.55L193.10 46.55L193.10 42.30L188.70 42.30L188.70 38L186.20 38L186.20 42.30L181.80 42.30L181.80 46.55L175.45 46.55Z"/></g></g></svg>