<?xml version="1.0" encoding="UTF-8" standalone="no"?><!DOCTYPE svg PUBLIC "-//W3C//DTD SVG 1.1//EN" "http://www.w3.org/Graphics/SVG/1.1/DTD/svg11.dtd"><svg width="100%" height="100%" viewBox="0 0 2400 2400" version="1.1" xmlns="http://www.w3.org/2000/svg" xmlns:xlink="http://www.w3.org/1999/xlink" xml:space="preserve" xmlns:serif="http://www.serif.com/" style="fill-rule:evenodd;clip-rule:evenodd;"><g id="figure_1"><g id="axes_1"><g id="Path3DCollection_1"><g><path id="m8a25ab9a45" d="M810.276,859.175c4.162,0 8.153,-1.653 11.096,-4.596c2.943,-2.943 4.596,-6.935 4.596,-11.096c0,-4.162 -1.653,-8.153 -4.596,-11.096c-2.943,-2.943 -6.935,-4.596 -11.096,-4.596c-4.162,0 -8.153,1.653 -11.096,4.596c-2.943,2.943 -4.596,6.935 -4.596,11.096c0,4.162 1.653,8.153 4.596,11.096c2.943,2.943 6.935,4.596 11.096,4.596Z" style="fill:#ff6b6b;fill-rule:nonzero;stroke:#fff;stroke-width:3.72px;"/></g></g><g id="line2d_1"><path d="M164.958,1148.728l14.516,18.018l14.436,17.233l14.331,16.139l14.214,14.84l14.1,13.458l13.999,12.12l13.923,10.948l13.88,10.049l13.872,9.503l13.902,9.357l13.965,9.62l14.055,10.263l14.164,11.217l14.28,12.385l14.395,13.651l14.498,14.887l14.582,15.975l14.643,16.809l14.678,17.316l14.689,17.455l14.68,17.222l14.656,16.651l14.624,15.81l14.591,14.79l14.564,13.699l14.548,12.649l14.546,11.75l14.56,11.095l14.59,10.758l14.633,10.779l14.684,11.169l14.74,11.902l14.796,12.92l14.845,14.138l14.885,15.45l14.914,16.74l14.93,17.895l14.935,18.81l14.931,19.404" style="fill:none;fill-rule:nonzero;stroke:#30123b;stroke-opacity:0.6;stroke-width:1.98px;stroke-linecap:square;"/></g><g id="line2d_2"><path d="M179.218,1140.586l14.582,18.882l14.483,17.923l14.355,16.589l14.213,15.007l14.074,13.324l13.952,11.693l13.86,10.263l13.805,9.162l13.793,8.488l13.825,8.298l13.896,8.604l13.998,9.369l14.122,10.512l14.254,11.915l14.384,13.435l14.5,14.919l14.594,16.222l14.66,17.218l14.697,17.818l14.706,17.973l14.691,17.681l14.66,16.987l14.621,15.971l14.582,14.744l14.55,13.437l14.531,12.187l14.529,11.123l14.545,10.358l14.579,9.977l14.627,10.031l14.684,10.528l14.745,11.437l14.803,12.687l14.854,14.173l14.893,15.766l14.917,17.327l14.927,18.717l14.925,19.81l14.913,20.51" style="fill:none;fill-rule:nonzero;stroke:#372466;stroke-opacity:0.6;stroke-width:1.98px;stroke-linecap:square;"/></g><g id="line2d_3"><path d="M193.413,1132.254l14.623,19.536l14.511,18.443l14.367,16.925l14.208,15.127l14.053,13.212l13.917,11.356l13.813,9.726l13.752,8.466l13.737,7.688l13.77,7.456l13.846,7.783l13.956,8.628l14.088,9.9l14.231,11.464l14.37,13.16l14.493,14.813l14.592,16.26l14.66,17.361l14.697,18.017l14.705,18.174l14.688,17.835l14.654,17.051l14.612,15.914l14.572,14.553l14.54,13.113l14.522,11.747l14.523,10.601l14.543,9.797l14.582,9.429l14.634,9.549l14.695,10.165l14.757,11.238l14.816,12.686l14.865,14.387l14.899,16.198l14.917,17.959l14.919,19.514l14.908,20.725l14.889,21.485" style="fill:none;fill-rule:nonzero;stroke:#3d358b;stroke-opacity:0.6;stroke-width:1.98px;stroke-linecap:square;"/></g><g id="line2d_4"><path d="M207.542,1123.704l14.638,19.949l14.519,18.769l14.367,17.132l14.2,15.192l14.037,13.125l13.894,11.121l13.785,9.356l13.72,7.987l13.705,7.132l13.738,6.861l13.815,7.187l13.928,8.066l14.064,9.399l14.209,11.043l14.351,12.823l14.476,14.557l14.575,16.069l14.644,17.211l14.681,17.88l14.687,18.025l14.671,17.651l14.638,16.814l14.599,15.619l14.561,14.203l14.534,12.722l14.522,11.337l14.528,10.199l14.554,9.436l14.597,9.142l14.652,9.368l14.715,10.115l14.777,11.337l14.832,12.941l14.875,14.798l14.903,16.751l14.913,18.631l14.906,20.273l14.887,21.534l14.86,22.302" style="fill:none;fill-rule:nonzero;stroke:#4249b1;stroke-opacity:0.6;stroke-width:1.98px;stroke-linecap:square;"/></g><g id="line2d_5"><path d="M221.607,1114.916l14.628,20.106l14.508,18.888l14.355,17.2l14.188,15.198l14.025,13.066l13.883,10.994l13.775,9.166l13.71,7.742l13.695,6.841l13.728,6.535l13.804,6.836l13.915,7.699l14.048,9.022l14.191,10.657l14.328,12.427l14.45,14.145l14.546,15.636l14.612,16.752l14.648,17.392l14.656,17.508l14.642,17.11l14.614,16.264l14.581,15.076l14.552,13.69l14.533,12.265l14.53,10.961l14.544,9.929l14.576,9.292l14.623,9.137l14.68,9.507l14.741,10.395l14.8,11.747l14.849,13.464l14.884,15.409l14.903,17.423l14.903,19.335l14.888,20.981l14.861,22.219l14.828,22.941" style="fill:none;fill-rule:nonzero;stroke:#4559cb;stroke-opacity:0.6;stroke-width:1.98px;stroke-linecap:square;"/></g><g id="line2d_6"><path d="M235.607,1105.882l14.595,19.996l14.479,18.793l14.333,17.124l14.174,15.144l14.018,13.033l13.883,10.979l13.78,9.162l13.72,7.738l13.706,6.824l13.738,6.488l13.811,6.742l13.915,7.539l14.041,8.778l14.174,10.315l14.303,11.977l14.416,13.584l14.506,14.966l14.568,15.986l14.603,16.551l14.613,16.622l14.604,16.215l14.585,15.4l14.562,14.287l14.545,13.018l14.538,11.747l14.545,10.627l14.569,9.799l14.608,9.372l14.658,9.42l14.715,9.972l14.772,11.01l14.824,12.471l14.864,14.252l14.89,16.214l14.898,18.204l14.889,20.058l14.865,21.622l14.831,22.764l14.794,23.385" style="fill:none;fill-rule:nonzero;stroke:#466be3;stroke-opacity:0.6;stroke-width:1.98px;stroke-linecap:square;"/></g><g id="line2d_7"><path d="M249.547,1096.604l14.539,19.624l14.434,18.486l14.301,16.907l14.157,15.031l14.016,13.028l13.893,11.076l13.801,9.342l13.748,7.974l13.736,7.078l13.766,6.719l13.833,6.904l13.928,7.587l14.041,8.672l14.16,10.025l14.275,11.485l14.377,12.886l14.457,14.076l14.515,14.933l14.548,15.38l14.562,15.389l14.562,14.986l14.553,14.243l14.544,13.27l14.541,12.201l14.548,11.179l14.568,10.343l14.601,9.811l14.646,9.675l14.698,9.985l14.752,10.752l14.803,11.945l14.846,13.491l14.875,15.284l14.889,17.193l14.887,19.074l14.868,20.781l14.837,22.179l14.799,23.153l14.761,23.623" style="fill:none;fill-rule:nonzero;stroke:#477bf2;stroke-opacity:0.6;stroke-width:1.98px;stroke-linecap:square;"/></g><g id="line2d_8"><path d="M263.429,1087.094l14.466,19.002l14.376,17.978l14.262,16.553l14.138,14.86l14.017,13.048l13.913,11.277l13.835,9.697l13.79,8.437l13.782,7.593l13.809,7.217l13.868,7.314l13.95,7.84l14.047,8.708l14.149,9.798l14.247,10.968l14.334,12.078l14.404,12.998l14.455,13.631l14.489,13.919l14.507,13.851l14.517,13.463l14.522,12.829l14.529,12.056l14.542,11.264l14.564,10.579l14.597,10.116l14.639,9.966l14.688,10.19l14.739,10.814l14.789,11.823l14.831,13.169l14.862,14.771l14.88,16.525l14.882,18.31l14.868,20.002l14.842,21.479l14.806,22.633l14.767,23.375l14.729,23.648" style="fill:none;fill-rule:nonzero;stroke:#458afc;stroke-opacity:0.6;stroke-width:1.98px;stroke-linecap:square;"/></g><g id="line2d_9"><path d="M277.257,1077.373l14.378,18.154l14.307,17.286l14.216,16.076l14.117,14.634l14.022,13.089l13.939,11.572l13.879,10.209l13.845,9.108l13.84,8.344l13.864,7.959l13.913,7.953l13.98,8.286l14.058,8.883l14.141,9.642l14.22,10.45l14.29,11.194l14.348,11.778l14.394,12.133l14.428,12.228l14.453,12.07l14.473,11.707l14.494,11.214l14.518,10.691l14.548,10.242l14.586,9.969l14.63,9.955l14.68,10.257l14.731,10.899l14.779,11.875l14.821,13.141l14.852,14.632l14.871,16.259l14.875,17.922l14.865,19.519l14.842,20.949l14.81,22.122l14.772,22.964l14.734,23.419l14.701,23.457" style="fill:none;fill-rule:nonzero;stroke:#3e9bfe;stroke-opacity:0.6;stroke-width:1.98px;stroke-linecap:square;"/></g><g id="line2d_10"><path d="M291.036,1067.469l14.28,17.11l14.231,16.433l14.167,15.488l14.096,14.359l14.029,13.144l13.971,11.944l13.929,10.854l13.907,9.954l13.907,9.299l13.927,8.915l13.965,8.797l14.015,8.91l14.074,9.193l14.135,9.57l14.194,9.958l14.248,10.279l14.294,10.474l14.334,10.51l14.369,10.384l14.402,10.126l14.434,9.794l14.471,9.468l14.512,9.236l14.559,9.182l14.611,9.377l14.666,9.869l14.72,10.673l14.771,11.774l14.813,13.123l14.845,14.651l14.864,16.27l14.868,17.888l14.859,19.413l14.839,20.762l14.809,21.867l14.774,22.676l14.737,23.152l14.704,23.279l14.677,23.055" style="fill:none;fill-rule:nonzero;stroke:#35abf8;stroke-opacity:0.6;stroke-width:1.98px;stroke-linecap:square;"/></g><g id="line2d_11"><path d="M304.77,1057.411l14.176,15.907l14.15,15.449l14.114,14.807l14.075,14.037l14.037,13.203l14.005,12.37l13.984,11.599l13.974,10.937l13.978,10.415l13.994,10.043l14.021,9.811l14.054,9.688l14.093,9.633l14.132,9.594l14.171,9.523l14.209,9.383l14.245,9.155l14.28,8.843l14.317,8.477l14.357,8.111l14.403,7.817l14.455,7.674l14.512,7.759l14.575,8.133l14.639,8.834l14.701,9.867l14.758,11.201l14.805,12.776l14.839,14.504l14.859,16.282l14.863,18.007l14.853,19.58l14.832,20.922l14.803,21.976l14.768,22.708l14.733,23.107l14.701,23.18l14.676,22.95l14.66,22.449" style="fill:none;fill-rule:nonzero;stroke:#28bceb;stroke-opacity:0.6;stroke-width:1.98px;stroke-linecap:square;"/></g><g id="line2d_12"><path d="M318.461,1047.228l14.07,14.587l14.068,14.363l14.061,14.049l14.053,13.669l14.045,13.251l14.04,12.822l14.039,12.403l14.042,12.009l14.05,11.642l14.062,11.297l14.077,10.956l14.095,10.596l14.113,10.193l14.133,9.725l14.153,9.179l14.176,8.561l14.203,7.893l14.235,7.221l14.274,6.607l14.323,6.13l14.38,5.875l14.447,5.923l14.519,6.336l14.595,7.152l14.668,8.371l14.735,9.953l14.79,11.821l14.83,13.864l14.854,15.955l14.859,17.96l14.849,19.758l14.826,21.25l14.794,22.373l14.757,23.095l14.722,23.422l14.691,23.385l14.667,23.036l14.653,22.438l14.649,21.658" style="fill:none;fill-rule:nonzero;stroke:#1fc9dd;stroke-opacity:0.6;stroke-width:1.98px;stroke-linecap:square;"/></g><g id="line2d_13"><path d="M332.114,1036.943l13.966,13.192l13.987,13.205l14.009,13.227l14.031,13.251l14.052,13.268l14.072,13.263l14.091,13.219l14.106,13.114l14.119,12.923l14.127,12.623l14.133,12.19l14.135,11.607l14.136,10.867l14.137,9.978l14.141,8.965l14.151,7.873l14.17,6.769l14.2,5.737l14.243,4.876l14.299,4.288l14.368,4.072l14.447,4.307l14.532,5.045l14.617,6.294l14.696,8.018l14.763,10.131l14.814,12.507l14.845,14.989l14.855,17.408l14.846,19.602l14.821,21.437l14.785,22.815l14.745,23.689l14.705,24.058l14.671,23.965l14.647,23.485l14.635,22.714l14.635,21.755l14.646,20.705" style="fill:none;fill-rule:nonzero;stroke:#19d5cd;stroke-opacity:0.6;stroke-width:1.98px;stroke-linecap:square;"/></g><g id="line2d_14"><path d="M345.73,1026.565l13.867,11.758l13.909,11.999l13.957,12.349l14.007,12.774l14.056,13.224l14.1,13.649l14.137,13.989l14.165,14.189l14.182,14.195l14.188,13.965l14.184,13.468l14.174,12.692l14.16,11.648l14.145,10.369l14.136,8.918l14.135,7.379l14.148,5.861l14.177,4.486l14.223,3.387l14.287,2.691l14.366,2.508l14.455,2.917l14.549,3.957l14.64,5.609l14.721,7.8l14.785,10.399l14.828,13.233l14.847,16.1l14.843,18.795l14.819,21.131l14.78,22.962l14.734,24.195l14.687,24.802l14.647,24.812l14.619,24.303l14.605,23.394l14.607,22.22l14.623,20.92l14.651,19.623" style="fill:none;fill-rule:nonzero;stroke:#19e2bb;stroke-opacity:0.6;stroke-width:1.98px;stroke-linecap:square;"/></g><g id="line2d_15"><path d="M359.309,1016.085l13.775,10.319l13.836,10.762l13.907,11.415l13.982,12.215l14.056,13.081l14.121,13.924l14.175,14.649l14.214,15.165l14.236,15.392l14.241,15.265l14.232,14.748l14.211,13.829l14.185,12.533l14.158,10.919l14.138,9.081l14.129,7.141l14.138,5.247l14.166,3.558l14.216,2.238l14.286,1.437l14.372,1.276l14.469,1.835l14.568,3.137l14.661,5.141l14.74,7.736l14.798,10.751l14.83,13.968l14.836,17.148l14.817,20.051l14.778,22.473l14.728,24.259l14.673,25.324l14.624,25.658l14.587,25.317l14.567,24.416l14.566,23.109l14.584,21.567l14.618,19.964l14.664,18.455" style="fill:none;fill-rule:nonzero;stroke:#20eaac;stroke-opacity:0.6;stroke-width:1.98px;stroke-linecap:square;"/></g><g id="line2d_16"><path d="M372.851,1005.471l13.691,8.896l13.768,9.502l13.858,10.412l13.954,11.543l14.049,12.788l14.133,14.024l14.203,15.125l14.252,15.967l14.28,16.443l14.287,16.467l14.274,15.988l14.247,14.996l14.212,13.524l14.176,11.651l14.148,9.498l14.134,7.222l14.14,5.003l14.169,3.038l14.221,1.517l14.296,0.612l14.387,0.456l14.487,1.128l14.588,2.638l14.679,4.921l14.752,7.835l14.801,11.173l14.821,14.681l14.813,18.084l14.779,21.12l14.727,23.567l14.667,25.27l14.607,26.151l14.558,26.217l14.527,25.552l14.517,24.298l14.531,22.642l14.567,20.785l14.62,18.928l14.682,17.247" style="fill:none;fill-rule:nonzero;stroke:#32f298;stroke-opacity:0.6;stroke-width:1.98px;stroke-linecap:square;"/></g><g id="line2d_17"><path d="M386.352,994.666l13.617,7.5l13.705,8.211l13.81,9.316l13.922,10.715l14.034,12.284l14.135,13.877l14.218,15.339l14.279,16.518l14.314,17.279l14.324,17.514l14.311,17.155l14.282,16.182l14.242,14.632l14.201,12.596l14.168,10.218l14.15,7.682l14.154,5.202l14.183,3.002l14.237,1.301l14.313,0.291l14.406,0.113l14.507,0.848l14.605,2.495l14.692,4.968l14.756,8.099l14.794,11.651l14.8,15.341l14.778,18.869l14.731,21.954l14.669,24.367l14.601,25.953l14.54,26.643l14.493,26.46l14.47,25.51l14.473,23.958l14.503,22.015l14.557,19.908l14.627,17.856l14.705,16.054" style="fill:none;fill-rule:nonzero;stroke:#46f884;stroke-opacity:0.6;stroke-width:1.98px;stroke-linecap:square;"/></g><g id="line2d_18"><path d="M399.81,983.589l13.552,6.126l13.647,6.872l13.761,8.089l13.885,9.676l14.009,11.501l14.124,13.402l14.221,15.207l14.293,16.74l14.338,17.836l14.355,18.359l14.346,18.219l14.317,17.38l14.276,15.872l14.233,13.79l14.197,11.291l14.177,8.583l14.179,5.908l14.206,3.517l14.26,1.654l14.336,0.528l14.428,0.294l14.525,1.03l14.619,2.729l14.697,5.288l14.751,8.52l14.776,12.166l14.77,15.92l14.734,19.469l14.677,22.521l14.606,24.844l14.535,26.285l14.474,26.787l14.433,26.386l14.419,25.202l14.436,23.42l14.482,21.265l14.552,18.98l14.638,16.8l14.73,14.93" style="fill:none;fill-rule:nonzero;stroke:#5dfc6f;stroke-opacity:0.6;stroke-width:1.98px;stroke-linecap:square;"/></g><g id="line2d_19"><path d="M413.223,972.148l13.495,4.764l13.591,5.456l13.71,6.688l13.841,8.367l13.975,10.365l14.102,12.521l14.211,14.65l14.297,16.557l14.354,18.05l14.38,18.96l14.379,19.162l14.355,18.594l14.316,17.266l14.273,15.269l14.236,12.766l14.213,9.981l14.213,7.177l14.238,4.635l14.289,2.621l14.362,1.362l14.449,1.024l14.54,1.689l14.625,3.343l14.694,5.875l14.737,9.083l14.749,12.695l14.73,16.395l14.684,19.862l14.618,22.801l14.543,24.984l14.471,26.263l14.414,26.59l14.38,26.01l14.377,24.654l14.407,22.716l14.467,20.432l14.552,18.05l14.652,15.812l14.755,13.928" style="fill:none;fill-rule:nonzero;stroke:#79fe59;stroke-opacity:0.6;stroke-width:1.98px;stroke-linecap:square;"/></g><g id="line2d_20"><path d="M426.587,960.251l13.446,3.394l13.539,3.933l13.657,5.068l13.792,6.73l13.932,8.81l14.068,11.161l14.191,13.596l14.291,15.907l14.363,17.872l14.403,19.282l14.413,19.969l14.397,19.828l14.363,18.837l14.321,17.069l14.283,14.685l14.257,11.918l14.253,9.053l14.274,6.393l14.319,4.229l14.386,2.809l14.466,2.31l14.548,2.82l14.624,4.325l14.681,6.71l14.712,9.767l14.714,13.219l14.685,16.748l14.631,20.034l14.561,22.79l14.484,24.79l14.414,25.898l14.362,26.071l14.337,25.361l14.345,23.901l14.386,21.89l14.459,19.561l14.555,17.165l14.665,14.941l14.776,13.097" style="fill:none;fill-rule:nonzero;stroke:#8fff49;stroke-opacity:0.6;stroke-width:1.98px;stroke-linecap:square;"/></g><g id="line2d_21"><path d="M439.903,947.831l13.403,2l13.489,2.279l13.603,3.197l13.737,4.724l13.881,6.788l14.026,9.268l14.162,11.992l14.279,14.741l14.368,17.263l14.425,19.302l14.449,20.631l14.444,21.087l14.416,20.602l14.376,19.215l14.336,17.074l14.307,14.419l14.297,11.552l14.31,8.8l14.348,6.479l14.405,4.859l14.475,4.133l14.548,4.399l14.612,5.648l14.659,7.766l14.68,10.547l14.672,13.718l14.636,16.967l14.578,19.985l14.506,22.493l14.432,24.28l14.367,25.216l14.322,25.263l14.306,24.476l14.324,22.986l14.375,20.984l14.457,18.698l14.561,16.369l14.677,14.229l14.792,12.478" style="fill:none;fill-rule:nonzero;stroke:#a4fc3c;stroke-opacity:0.6;stroke-width:1.98px;stroke-linecap:square;"/></g><g id="line2d_22"><path d="M453.175,934.874l13.367,0.576l13.443,0.485l13.549,1.064l13.678,2.335l13.825,4.28l13.978,6.824l14.128,9.818l14.263,13.04l14.373,16.208l14.45,19.008l14.49,21.142l14.496,22.371l14.475,22.561l14.437,21.707l14.394,19.933l14.358,17.478l14.339,14.66l14.343,11.832l14.37,9.338l14.416,7.473l14.475,6.451l14.536,6.383l14.59,7.269l14.626,9.006l14.639,11.394l14.625,14.173l14.586,17.046l14.528,19.719l14.459,21.931l14.39,23.482l14.332,24.252l14.296,24.207l14.288,23.399l14.314,21.951l14.372,20.041l14.459,17.882l14.567,15.7l14.684,13.709l14.798,12.098" style="fill:none;fill-rule:nonzero;stroke:#b4f836;stroke-opacity:0.6;stroke-width:1.98px;stroke-linecap:square;"/></g><g id="line2d_23"><path d="M466.409,921.44l13.338,-0.863l13.401,-1.427l13.497,-1.305l13.621,-0.407l13.768,1.318l13.93,3.856l14.095,7.094l14.249,10.818l14.38,14.712l14.478,18.399l14.536,21.492l14.553,23.662l14.538,24.692l14.499,24.513l14.451,23.219l14.406,21.043l14.376,18.318l14.367,15.424l14.381,12.737l14.415,10.581l14.462,9.193l14.512,8.705l14.556,9.133l14.584,10.384l14.592,12.278l14.576,14.57l14.538,16.986l14.483,19.252l14.421,21.128l14.36,22.431l14.311,23.048l14.284,22.949l14.284,22.176l14.315,20.84l14.377,19.1l14.464,17.147l14.57,15.183l14.683,13.403l14.793,11.973" style="fill:none;fill-rule:nonzero;stroke:#c3f134;stroke-opacity:0.6;stroke-width:1.98px;stroke-linecap:square;"/></g><g id="line2d_24"><path d="M479.617,907.69l13.318,-2.273l13.367,-3.398l13.451,-3.837l13.568,-3.418l13.716,-2.008l13.886,0.451l14.065,3.9l14.24,8.136l14.392,12.814l14.51,17.487l14.584,21.671l14.612,24.925l14.6,26.932l14.558,27.553l14.502,26.837l14.445,25.008l14.401,22.412l14.378,19.459l14.378,16.56l14.399,14.072l14.434,12.261l14.474,11.281l14.51,11.168l14.534,11.849l14.54,13.165l14.526,14.895l14.493,16.79l14.446,18.604l14.394,20.12l14.344,21.17l14.306,21.653l14.287,21.535l14.293,20.851l14.327,19.692l14.388,18.193l14.471,16.516l14.57,14.836l14.674,13.316l14.775,12.102" style="fill:none;fill-rule:nonzero;stroke:#d4e735;stroke-opacity:0.6;stroke-width:1.98px;stroke-linecap:square;"/></g><g id="line2d_25"><path d="M492.811,893.884l13.309,-3.581l13.344,-5.329l13.416,-6.405l13.526,-6.553l13.674,-5.544l13.851,-3.236l14.045,0.374l14.237,5.106l14.41,10.589l14.547,16.303l14.634,21.659l14.669,26.094l14.657,29.182l14.609,30.694l14.541,30.631l14.47,29.202l14.411,26.768l14.372,23.766l14.357,20.646l14.365,17.8l14.39,15.525l14.422,14.003l14.453,13.291l14.476,13.343l14.484,14.022l14.476,15.137l14.453,16.47l14.418,17.802l14.379,18.943l14.342,19.745l14.315,20.114l14.304,20.014l14.315,19.467l14.348,18.542l14.404,17.344l14.478,16.004l14.564,14.66l14.655,13.444l14.742,12.473" style="fill:none;fill-rule:nonzero;stroke:#e1dd37;stroke-opacity:0.6;stroke-width:1.98px;stroke-linecap:square;"/></g><g id="line2d_26"><path d="M506.006,880.373l13.312,-4.685l13.334,-7.082l13.395,-8.838l13.5,-9.61l13.647,-9.071l13.83,-6.985l14.036,-3.281l14.244,1.891l14.434,8.145l14.584,14.893l14.681,21.434l14.719,27.085l14.703,31.297l14.645,33.749l14.563,34.387l14.476,33.399l14.4,31.156l14.346,28.127l14.317,24.794l14.314,21.587l14.33,18.836l14.357,16.75l14.387,15.413l14.412,14.803l14.427,14.815l14.429,15.288l14.419,16.036l14.4,16.875l14.376,17.641l14.354,18.204l14.338,18.481l14.335,18.432l14.347,18.063l14.377,17.418l14.423,16.571l14.483,15.614l14.553,14.647l14.625,13.767l14.695,13.058" style="fill:none;fill-rule:nonzero;stroke:#eecf3a;stroke-opacity:0.6;stroke-width:1.98px;stroke-linecap:square;"/></g><g id="line2d_27"><path d="M519.216,867.564l13.331,-5.468l13.342,-8.497l13.393,-10.934l13.492,-12.351l13.639,-12.326l13.827,-10.531l14.041,-6.819l14.261,-1.301l14.462,5.627l14.621,13.318l14.721,20.976l14.757,27.794l14.732,33.105l14.662,36.494l14.564,37.846l14.461,37.325l14.368,35.307l14.299,32.285l14.259,28.773l14.246,25.234l14.256,22.028l14.282,19.391l14.314,17.435l14.345,16.167l14.37,15.511l14.386,15.341l14.393,15.507l14.391,15.858l14.385,16.258l14.378,16.599l14.374,16.804l14.377,16.833l14.389,16.674l14.412,16.345l14.444,15.883l14.486,15.342l14.534,14.779l14.585,14.253l14.635,13.816" style="fill:none;fill-rule:nonzero;stroke:#f6c33a;stroke-opacity:0.6;stroke-width:1.98px;stroke-linecap:square;"/></g><g id="line2d_28"><path d="M532.448,855.871l13.364,-5.813l13.367,-9.412l13.411,-12.486l13.505,-14.528l13.65,-15.033l13.84,-13.585l14.059,-9.965l14.285,-4.241l14.49,3.197l14.651,11.66l14.749,20.27l14.777,28.116l14.741,34.423l14.656,38.688l14.542,40.732l14.422,40.69l14.315,38.935l14.233,35.974l14.183,32.344l14.164,28.536l14.172,24.933l14.198,21.797l14.235,19.267l14.276,17.376l14.315,16.083l14.348,15.296l14.374,14.902l14.392,14.786l14.405,14.84l14.414,14.978l14.421,15.134l14.429,15.26l14.438,15.333l14.45,15.339l14.466,15.283l14.486,15.174l14.51,15.028l14.536,14.864l14.564,14.699" style="fill:none;fill-rule:nonzero;stroke:#fbb637;stroke-opacity:0.6;stroke-width:1.98px;stroke-linecap:square;"/></g><g id="line2d_29"><path d="M545.708,845.651l13.411,-5.625l13.409,-9.692l13.448,-13.312l13.538,-15.92l13.681,-16.938l13.869,-15.881l14.088,-12.462l14.313,-6.702l14.516,1.024l14.671,10.008l14.761,19.318l14.778,27.966l14.728,35.091l14.627,40.111l14.498,42.789l14.363,43.224l14.244,41.774l14.153,38.946l14.096,35.289l14.074,31.306l14.081,27.4l14.111,23.852l14.156,20.825l14.209,18.381l14.263,16.509l14.315,15.155l14.362,14.245l14.402,13.696l14.434,13.435l14.459,13.394l14.476,13.517l14.487,13.756l14.491,14.069l14.491,14.418l14.488,14.769l14.483,15.093l14.48,15.362l14.479,15.554l14.484,15.654" style="fill:none;fill-rule:nonzero;stroke:#fea431;stroke-opacity:0.6;stroke-width:1.98px;stroke-linecap:square;"/></g><g id="line2d_30"><path d="M558.992,837.146l13.469,-4.854l13.464,-9.253l13.5,-13.293l13.587,-16.37l13.726,-17.858l13.91,-17.214l14.123,-14.102l14.34,-8.497l14.534,-0.744l14.678,8.454l14.755,18.146l14.757,27.3l14.692,35.001l14.577,40.607l14.435,43.829l14.289,44.723l14.161,43.619l14.064,41.008l14.003,37.432l13.98,33.396l13.989,29.308l14.025,25.464l14.079,22.046l14.145,19.142l14.217,16.776l14.289,14.928l14.357,13.561l14.418,12.629l14.47,12.089l14.51,11.895l14.536,12.001l14.548,12.358l14.546,12.91l14.531,13.593l14.507,14.339l14.477,15.078l14.445,15.742l14.418,16.273l14.399,16.621" style="fill:none;fill-rule:nonzero;stroke:#fe932a;stroke-opacity:0.6;stroke-width:1.98px;stroke-linecap:square;"/></g><g id="line2d_31"><path d="M572.291,830.438l13.533,-3.507l13.528,-8.082l13.563,-12.394l13.645,-15.818l13.779,-17.704l13.955,-17.478l14.158,-14.766l14.362,-9.502l14.541,-1.995l14.669,7.086l14.729,16.804l14.716,26.129l14.638,34.123l14.511,40.111l14.359,43.758l14.207,45.076l14.074,44.352l13.973,42.044l13.911,38.667l13.889,34.711l13.902,30.58l13.944,26.574l14.009,22.891l14.089,19.642l14.177,16.883l14.268,14.629l14.358,12.879l14.439,11.624l14.509,10.848l14.563,10.529l14.597,10.631l14.609,11.104l14.599,11.88l14.57,12.873l14.524,13.984l14.468,15.106l14.409,16.133l14.354,16.971l14.313,17.543" style="fill:none;fill-rule:nonzero;stroke:#fb7e21;stroke-opacity:0.6;stroke-width:1.98px;stroke-linecap:square;"/></g><g id="line2d_32"><path d="M585.589,825.429l13.598,-1.656l13.595,-6.247l13.628,-10.673l13.707,-14.311l13.833,-16.508l13.998,-16.682l14.187,-14.439l14.374,-9.682l14.534,-2.671l14.643,5.974l14.687,15.37l14.659,24.525l14.57,32.52l14.435,38.667l14.279,42.603l14.124,44.292l13.99,43.968l13.889,42.035l13.828,38.968l13.808,35.223l13.825,31.188l13.874,27.161l13.948,23.346l14.04,19.879l14.145,16.84l14.254,14.279l14.363,12.231l14.463,10.72l14.549,9.756l14.614,9.34l14.655,9.446l14.666,10.027l14.649,11.003l14.604,12.269l14.538,13.699l14.457,15.155l14.371,16.497l14.292,17.602l14.23,18.366" style="fill:none;fill-rule:nonzero;stroke:#f66c19;stroke-opacity:0.6;stroke-width:1.98px;stroke-linecap:square;"/></g><g id="line2d_33"><path d="M598.869,821.851l13.659,0.573l13.657,-3.886l13.69,-8.275l13.765,-11.992l13.882,-14.404l14.034,-14.941l14.205,-13.208l14.372,-9.081l14.512,-2.774l14.602,5.167l14.63,13.937l14.591,22.615l14.495,30.334l14.358,36.424l14.202,40.503l14.048,42.492l13.916,42.562l13.817,41.056l13.758,38.387l13.741,34.968l13.762,31.157l13.816,27.241l13.899,23.428l14.002,19.867l14.12,16.666l14.246,13.905l14.37,11.649l14.487,9.952l14.586,8.852l14.661,8.367l14.706,8.484l14.716,9.155l14.691,10.296l14.632,11.786l14.547,13.476l14.444,15.203l14.335,16.802l14.235,18.122l14.155,19.041" style="fill:none;fill-rule:nonzero;stroke:#f05b12;stroke-opacity:0.6;stroke-width:1.98px;stroke-linecap:square;"/></g><g id="line2d_34"><path d="M612.112,819.304l13.71,3.009l13.711,-1.192l13.743,-5.411l13.812,-9.083l13.92,-11.612l14.057,-12.458l14.209,-11.239l14.356,-7.815l14.475,-2.349l14.548,4.691l14.563,12.6l14.517,20.557l14.419,27.768l14.284,33.605l14.132,37.684l13.985,39.886l13.857,40.321l13.763,39.258l13.707,37.044l13.692,34.035l13.716,30.553l13.775,26.863l13.863,23.171l13.975,19.638l14.104,16.39l14.241,13.534l14.379,11.162l14.508,9.354l14.618,8.169l14.7,7.643l14.748,7.772l14.756,8.512l14.723,9.775l14.653,11.428l14.551,13.309l14.43,15.235l14.303,17.02l14.185,18.497l14.091,19.529" style="fill:none;fill-rule:nonzero;stroke:#e7490c;stroke-opacity:0.6;stroke-width:1.98px;stroke-linecap:square;"/></g><g id="line2d_35"><path d="M625.305,817.315l13.748,5.466l13.752,1.619l13.783,-2.321l13.847,-5.84l13.944,-8.392l14.066,-9.48l14.2,-8.745l14.326,-6.039l14.427,-1.48l14.485,4.55l14.49,11.452l14.441,18.518l14.346,25.05l14.218,30.473l14.075,34.418l13.936,36.736l13.817,37.478l13.728,36.843l13.676,35.102l13.663,32.552l13.689,29.471l13.75,26.097l13.842,22.628l13.959,19.23l14.095,16.044l14.24,13.195l14.386,10.797l14.523,8.95l14.64,7.732l14.727,7.191l14.776,7.332l14.782,8.115l14.743,9.449l14.664,11.199l14.551,13.192l14.417,15.234l14.277,17.13l14.147,18.699l14.044,19.798" style="fill:none;fill-rule:nonzero;stroke:#dd3d08;stroke-opacity:0.6;stroke-width:1.98px;stroke-linecap:square;"/></g><g id="line2d_36"><path d="M638.435,815.405l13.773,7.762l13.779,4.336l13.809,0.755l13.867,-2.521l13.954,-5.007l14.061,-6.259l14.177,-5.947l14.286,-3.923l14.37,-0.263l14.416,4.73l14.416,10.566l14.368,16.653l14.279,22.394l14.162,27.286l14.032,30.98l13.905,33.313l13.795,34.285l13.713,34.026l13.665,32.741l13.655,30.662l13.681,28.019l13.742,25.023l13.835,21.858l13.954,18.687l14.091,15.659l14.24,12.912l14.39,10.575l14.53,8.76l14.65,7.558l14.738,7.025l14.787,7.175l14.791,7.971l14.749,9.324l14.665,11.098l14.546,13.119l14.405,15.191l14.258,17.116l14.122,18.711l14.014,19.829" style="fill:none;fill-rule:nonzero;stroke:#d02f05;stroke-opacity:0.6;stroke-width:1.98px;stroke-linecap:square;"/></g><g id="line2d_37"><path d="M651.497,813.142l13.784,9.744l13.792,6.776l13.821,3.612l13.874,0.65l13.951,-1.689l14.044,-3.018l14.144,-3.042l14.237,-1.62l14.308,1.207l14.345,5.206l14.343,9.991l14.299,15.081l14.22,19.983l14.117,24.265l14.001,27.615l13.889,29.863l13.79,30.972l13.717,31.015l13.674,30.133l13.665,28.503l13.691,26.307l13.751,23.724l13.841,20.92l13.958,18.051l14.093,15.265l14.24,12.706l14.389,10.508l14.528,8.791l14.646,7.651l14.733,7.149l14.78,7.303l14.783,8.08l14.74,9.396l14.654,11.12l14.535,13.085l14.394,15.1l14.248,16.972l14.113,18.525l14.006,19.615" style="fill:none;fill-rule:nonzero;stroke:#c32503;stroke-opacity:0.6;stroke-width:1.98px;stroke-linecap:square;"/></g><g id="line2d_38"><path d="M664.489,810.193l13.784,11.3l13.794,8.805l13.822,6.094l13.87,3.502l13.938,1.384l14.019,0.069l14.105,-0.188l14.183,0.742l14.243,2.843l14.275,5.946l14.272,9.752l14.235,13.883l14.168,17.943l14.08,21.576l13.982,24.509l13.885,26.579l13.8,27.726l13.736,27.979l13.698,27.428l13.692,26.199l13.717,24.432l13.774,22.274l13.859,19.868l13.97,17.358l14.099,14.886l14.239,12.59l14.381,10.603l14.513,9.044l14.626,8.007l14.708,7.554l14.753,7.705l14.755,8.432l14.714,9.657l14.632,11.26l14.519,13.086l14.385,14.959l14.247,16.7l14.12,18.144l14.02,19.16" style="fill:none;fill-rule:nonzero;stroke:#b41b01;stroke-opacity:0.6;stroke-width:1.98px;stroke-linecap:square;"/></g><g id="line2d_39"><path d="M677.416,806.34l13.776,12.371l13.788,10.345l13.816,8.106l13.86,5.926l13.919,4.096l13.989,2.885l14.062,2.505l14.128,3.07l14.179,4.58l14.206,6.913l14.205,9.848l14.176,13.096l14.122,16.348l14.05,19.319l13.97,21.784l13.89,23.594l13.82,24.681l13.767,25.046l13.737,24.739l13.733,23.847l13.757,22.474l13.81,20.734l13.888,18.747l13.989,16.639l14.108,14.537l14.236,12.568l14.365,10.855l14.486,9.506l14.589,8.609l14.665,8.221l14.706,8.362l14.708,9.007l14.672,10.09l14.599,11.505l14.498,13.116l14.379,14.768l14.256,16.304l14.144,17.581l14.056,18.479" style="fill:none;fill-rule:nonzero;stroke:#a11201;stroke-opacity:0.6;stroke-width:1.98px;stroke-linecap:square;"/></g><g id="line2d_40"><path d="M690.283,801.489l13.763,12.941l13.778,11.37l13.805,9.611l13.845,7.875l13.897,6.39l13.957,5.368l14.018,4.974l14.073,5.304l14.116,6.364l14.14,8.069l14.141,10.258l14.12,12.717l14.079,15.215l14.024,17.534l13.962,19.496l13.901,20.979l13.847,21.917l13.807,22.298l13.785,22.147l13.786,21.521l13.809,20.494l13.857,19.153l13.926,17.594l14.015,15.917l14.118,14.23l14.229,12.64l14.342,11.251l14.446,10.156l14.536,9.429l14.602,9.119l14.639,9.242l14.643,9.779l14.614,10.675l14.555,11.843l14.473,13.171l14.375,14.533l14.275,15.801l14.184,16.855l14.113,17.6" style="fill:none;fill-rule:nonzero;stroke:#8e0a01;stroke-opacity:0.6;stroke-width:1.98px;stroke-linecap:square;"/></g><g id="line2d_41"><path d="M164.958,1148.728l14.26,-8.143l14.195,-8.332l14.129,-8.55l14.064,-8.788l14.001,-9.034l13.94,-9.278l13.882,-9.51l13.828,-9.721l13.779,-9.905l13.733,-10.058l13.692,-10.183l13.653,-10.285l13.616,-10.378l13.579,-10.48l13.541,-10.614l13.501,-10.805l13.458,-11.076l13.412,-11.441l13.364,-11.897l13.316,-12.42l13.272,-12.958l13.234,-13.433l13.208,-13.75l13.194,-13.806l13.195,-13.511l13.209,-12.809l13.233,-11.693l13.26,-10.22l13.284,-8.505l13.298,-6.708l13.298,-5.009l13.28,-3.578l13.244,-2.547l13.192,-1.988l13.13,-1.911l13.062,-2.263l12.993,-2.95l12.927,-3.853l12.867,-4.851" style="fill:none;fill-rule:nonzero;stroke:#30123b;stroke-opacity:0.6;stroke-width:1.98px;stroke-linecap:square;"/></g><g id="line2d_42"><path d="M179.474,1166.746l14.326,-7.278l14.236,-7.679l14.145,-8.136l14.054,-8.632l13.967,-9.143l13.884,-9.65l13.809,-10.132l13.741,-10.569l13.681,-10.949l13.629,-11.261l13.586,-11.503l13.549,-11.681l13.517,-11.811l13.487,-11.919l13.458,-12.037l13.427,-12.202l13.393,-12.45l13.355,-12.804l13.315,-13.267l13.274,-13.814l13.236,-14.381l13.205,-14.872l13.187,-15.16l13.185,-15.114l13.199,-14.615l13.228,-13.592l13.266,-12.038l13.307,-10.032l13.342,-7.734l13.363,-5.361l13.363,-3.157l13.34,-1.35l13.295,-0.111l13.231,0.468l13.155,0.385l13.073,-0.281l12.993,-1.393l12.918,-2.782l12.854,-4.28" style="fill:none;fill-rule:nonzero;stroke:#372466;stroke-opacity:0.6;stroke-width:1.98px;stroke-linecap:square;"/></g><g id="line2d_43"><path d="M193.91,1183.979l14.372,-6.588l14.264,-7.159l14.153,-7.81l14.043,-8.513l13.938,-9.238l13.84,-9.957l13.75,-10.64l13.672,-11.262l13.604,-11.801l13.549,-12.245l13.504,-12.588l13.468,-12.839l13.439,-13.017l13.414,-13.155l13.39,-13.297l13.364,-13.493l13.335,-13.789l13.3,-14.219l13.262,-14.79l13.224,-15.469l13.189,-16.175l13.164,-16.784l13.153,-17.132l13.162,-17.045l13.19,-16.368l13.235,-15.007l13.291,-12.953l13.349,-10.312l13.397,-7.295l13.427,-4.19l13.429,-1.322l13.403,1.011l13.348,2.584l13.272,3.28l13.182,3.102l13.087,2.159l12.995,0.637l12.912,-1.243l12.843,-3.255" style="fill:none;fill-rule:nonzero;stroke:#3d358b;stroke-opacity:0.6;stroke-width:1.98px;stroke-linecap:square;"/></g><g id="line2d_44"><path d="M208.241,1200.118l14.396,-6.138l14.276,-6.823l14.153,-7.603l14.032,-8.445l13.916,-9.314l13.808,-10.175l13.711,-10.993l13.626,-11.739l13.555,-12.389l13.496,-12.926l13.451,-13.347l13.415,-13.661l13.387,-13.895l13.364,-14.089l13.341,-14.3l13.316,-14.59l13.285,-15.016l13.25,-15.62l13.21,-16.409l13.17,-17.34l13.135,-18.309l13.112,-19.153l13.108,-19.663l13.126,-19.613l13.169,-18.802l13.233,-17.103l13.309,-14.505l13.386,-11.139l13.45,-7.276l13.489,-3.291l13.495,0.399l13.465,3.409l13.401,5.448l13.312,6.369l13.208,6.179l13.099,5.016l12.996,3.119l12.906,0.769l12.832,-1.75" style="fill:none;fill-rule:nonzero;stroke:#4249b1;stroke-opacity:0.6;stroke-width:1.98px;stroke-linecap:square;"/></g><g id="line2d_45"><path d="M222.456,1214.958l14.395,-5.97l14.271,-6.704l14.145,-7.538l14.02,-8.438l13.901,-9.368l13.791,-10.288l13.692,-11.165l13.606,-11.965l13.534,-12.664l13.475,-13.248l13.429,-13.714l13.393,-14.078l13.364,-14.372l13.339,-14.648l13.313,-14.972l13.284,-15.418l13.248,-16.055l13.206,-16.93l13.16,-18.046l13.114,-19.346l13.076,-20.698l13.054,-21.895l13.055,-22.674l13.084,-22.747l13.143,-21.859l13.226,-19.844l13.322,-16.681l13.418,-12.53l13.498,-7.727l13.547,-2.739l13.556,1.907l13.522,5.727l13.449,8.357l13.347,9.612l13.228,9.498l13.106,8.187l12.992,5.971l12.895,3.193l12.818,0.199" style="fill:none;fill-rule:nonzero;stroke:#4559cb;stroke-opacity:0.6;stroke-width:1.98px;stroke-linecap:square;"/></g><g id="line2d_46"><path d="M236.555,1228.416l14.37,-6.104l14.25,-6.816l14.128,-7.625l14.009,-8.498l13.894,-9.4l13.788,-10.293l13.693,-11.145l13.61,-11.924l13.541,-12.609l13.483,-13.189l13.437,-13.666l13.4,-14.061l13.368,-14.416l13.338,-14.792l13.306,-15.265l13.269,-15.922l13.224,-16.838l13.172,-18.065l13.117,-19.601l13.063,-21.369l13.02,-23.205l12.998,-24.857l13.003,-26l13.042,-26.283l13.116,-25.386l13.217,-23.099l13.334,-19.388l13.449,-14.436l13.543,-8.646l13.601,-2.586l13.611,3.104l13.571,7.831l13.487,11.149l13.371,12.832l13.238,12.882l13.103,11.505l12.98,9.044l12.876,5.905l12.796,2.493" style="fill:none;fill-rule:nonzero;stroke:#466be3;stroke-opacity:0.6;stroke-width:1.98px;stroke-linecap:square;"/></g><g id="line2d_47"><path d="M250.555,1240.536l14.323,-6.531l14.215,-7.152l14.105,-7.861l13.997,-8.625l13.894,-9.414l13.799,-10.197l13.713,-10.944l13.637,-11.629l13.572,-12.237l13.518,-12.762l13.472,-13.214l13.432,-13.62l13.396,-14.031l13.359,-14.517l13.318,-15.165l13.27,-16.069l13.213,-17.313l13.15,-18.947l13.083,-20.961l13.021,-23.261l12.973,-25.649l12.949,-27.825l12.959,-29.405l13.008,-29.969l13.095,-29.136l13.213,-26.645l13.348,-22.442l13.478,-16.732l13.584,-9.979l13.646,-2.85l13.654,3.901l13.606,9.571l13.51,13.632l13.38,15.81l13.233,16.104l13.086,14.746l12.954,12.131l12.846,8.721l12.764,4.975" style="fill:none;fill-rule:nonzero;stroke:#477bf2;stroke-opacity:0.6;stroke-width:1.98px;stroke-linecap:square;"/></g><g id="line2d_48"><path d="M264.478,1251.484l14.259,-7.215l14.168,-7.69l14.077,-8.231l13.987,-8.815l13.9,-9.418l13.82,-10.017l13.746,-10.589l13.681,-11.117l13.623,-11.593l13.572,-12.018l13.527,-12.409l13.485,-12.805l13.443,-13.261l13.397,-13.857l13.346,-14.688l13.285,-15.855l13.216,-17.444l13.14,-19.504l13.063,-22.015l12.992,-24.865l12.94,-27.824l12.915,-30.549l12.93,-32.599l12.987,-33.495l13.086,-32.792l13.218,-30.182l13.366,-25.589l13.507,-19.229l13.618,-11.62l13.681,-3.514l13.683,4.228l13.625,10.803l13.515,15.601l13.37,18.304l13.21,18.902l13.053,17.651l12.915,14.984l12.803,11.414l12.72,7.444" style="fill:none;fill-rule:nonzero;stroke:#458afc;stroke-opacity:0.6;stroke-width:1.98px;stroke-linecap:square;"/></g><g id="line2d_49"><path d="M278.357,1261.532l14.185,-8.101l14.115,-8.385l14.045,-8.71l13.977,-9.06l13.91,-9.422l13.847,-9.781l13.789,-10.125l13.735,-10.447l13.685,-10.746l13.639,-11.035l13.594,-11.338l13.549,-11.7l13.501,-12.186l13.447,-12.881l13.384,-13.886l13.312,-15.304l13.23,-17.223l13.143,-19.686l13.057,-22.666l12.98,-26.031l12.924,-29.526l12.901,-32.771l12.92,-35.281l12.985,-36.525l13.093,-36.006l13.235,-33.374l13.39,-28.528l13.535,-21.69l13.646,-13.414l13.703,-4.52l13.695,4.049l13.623,11.403l13.499,16.867l13.34,20.079l13.169,21.019l13.005,19.954l12.861,17.346l12.748,13.742l12.665,9.679" style="fill:none;fill-rule:nonzero;stroke:#3e9bfe;stroke-opacity:0.6;stroke-width:1.98px;stroke-linecap:square;"/></g><g id="line2d_50"><path d="M292.23,1271.035l14.106,-9.116l14.059,-9.185l14.013,-9.265l13.967,-9.352l13.922,-9.44l13.878,-9.526l13.835,-9.611l13.793,-9.696l13.752,-9.792l13.71,-9.918l13.666,-10.11l13.618,-10.418l13.564,-10.913l13.501,-11.685l13.428,-12.835l13.346,-14.467l13.254,-16.666l13.159,-19.471l13.066,-22.844l12.986,-26.639l12.929,-30.582l12.909,-34.267l12.932,-37.179l13.003,-38.75l13.117,-38.449l13.262,-35.893l13.418,-30.958l13.561,-23.863l13.664,-15.182l13.709,-5.771l13.688,3.372l13.601,11.301l13.462,17.291l13.292,20.948l13.112,22.236l12.942,21.423l12.797,18.983l12.683,15.479l12.602,11.463" style="fill:none;fill-rule:nonzero;stroke:#35abf8;stroke-opacity:0.6;stroke-width:1.98px;stroke-linecap:square;"/></g><g id="line2d_51"><path d="M306.132,1280.391l14.029,-10.175l14.004,-10.028l13.98,-9.86l13.956,-9.678l13.932,-9.487l13.906,-9.295l13.878,-9.113l13.848,-8.953l13.815,-8.836l13.777,-8.79l13.734,-8.857l13.683,-9.092l13.624,-9.571l13.554,-10.385l13.474,-11.634l13.383,-13.42l13.285,-15.821l13.184,-18.871l13.088,-22.522l13.008,-26.618l12.954,-30.876l12.937,-34.876l12.964,-38.09l13.039,-39.934l13.155,-39.86l13.298,-37.467l13.449,-32.616l13.581,-25.516l13.671,-16.735l13.7,-7.139l13.662,2.26l13.56,10.494l13.408,16.815l13.229,20.807l13.043,22.416l12.871,21.899l12.726,19.723l12.614,16.446l12.536,12.619" style="fill:none;fill-rule:nonzero;stroke:#28bceb;stroke-opacity:0.6;stroke-width:1.98px;stroke-linecap:square;"/></g><g id="line2d_52"><path d="M320.097,1290.012l13.959,-11.191l13.954,-10.849l13.95,-10.456l13.945,-10.028l13.938,-9.582l13.928,-9.133l13.913,-8.703l13.893,-8.313l13.867,-7.993l13.833,-7.776l13.791,-7.711l13.739,-7.858l13.676,-8.293l13.601,-9.105l13.516,-10.393l13.421,-12.253l13.319,-14.757l13.217,-17.928l13.122,-21.715l13.045,-25.956l12.995,-30.365l12.982,-34.525l13.013,-37.912l13.089,-39.946l13.202,-40.084l13.338,-37.925l13.477,-33.323l13.593,-26.468l13.664,-17.908l13.675,-8.481l13.619,0.826l13.503,9.061l13.341,15.479l13.156,19.659l12.969,21.53l12.798,21.324l12.656,19.484l12.547,16.543l12.472,13.029" style="fill:none;fill-rule:nonzero;stroke:#1fc9dd;stroke-opacity:0.6;stroke-width:1.98px;stroke-linecap:square;"/></g><g id="line2d_53"><path d="M334.152,1300.274l13.902,-12.085l13.912,-11.589l13.922,-11.018l13.932,-10.395l13.938,-9.742l13.94,-9.085l13.935,-8.45l13.923,-7.867l13.903,-7.369l13.872,-6.998l13.831,-6.803l13.779,-6.848l13.715,-7.207l13.639,-7.969l13.552,-9.226l13.456,-11.067l13.355,-13.558l13.255,-16.715l13.164,-20.481l13.092,-24.697l13.047,-29.082l13.039,-33.234l13.072,-36.65l13.146,-38.776l13.252,-39.094l13.376,-37.217l13.497,-33.001l13.593,-26.617l13.644,-18.574l13.635,-9.652l13.562,-0.777l13.435,7.15l13.267,13.421l13.081,17.621l12.896,19.664l12.729,19.753l12.592,18.286l12.488,15.756l12.416,12.65" style="fill:none;fill-rule:nonzero;stroke:#19d5cd;stroke-opacity:0.6;stroke-width:1.98px;stroke-linecap:square;"/></g><g id="line2d_54"><path d="M348.316,1311.491l13.86,-12.79l13.879,-12.201l13.898,-11.519l13.916,-10.772l13.931,-9.986l13.94,-9.19l13.942,-8.415l13.935,-7.692l13.918,-7.059l13.891,-6.559l13.852,-6.243l13.801,-6.174l13.738,-6.427l13.664,-7.084l13.579,-8.234l13.486,-9.96l13.389,-12.318l13.295,-15.321l13.211,-18.91l13.145,-22.932l13.106,-27.122l13.102,-31.104l13.135,-34.409l13.203,-36.527l13.298,-36.978l13.405,-35.409l13.506,-31.682l13.58,-25.949l13.608,-18.664l13.58,-10.529l13.495,-2.381l13.36,4.965l13.191,10.855l13.008,14.902l12.829,17.009l12.67,17.341l12.54,16.247l12.442,14.16l12.373,11.517" style="fill:none;fill-rule:nonzero;stroke:#19e2bb;stroke-opacity:0.6;stroke-width:1.98px;stroke-linecap:square;"/></g><g id="line2d_55"><path d="M362.596,1323.876l13.834,-13.261l13.855,-12.651l13.877,-11.941l13.897,-11.158l13.915,-10.328l13.926,-9.48l13.93,-8.642l13.926,-7.847l13.912,-7.131l13.888,-6.535l13.853,-6.112l13.805,-5.921l13.747,-6.035l13.677,-6.534l13.597,-7.502l13.511,-9.015l13.421,-11.125l13.335,-13.842l13.259,-17.11l13.2,-20.787l13.167,-24.63l13.164,-28.298l13.194,-31.369l13.253,-33.386l13.334,-33.923l13.422,-32.664l13.5,-29.488l13.551,-24.526l13.558,-18.168l13.514,-11.026l13.419,-3.825l13.282,2.722l13.117,8.037l12.942,11.77l12.773,13.821l12.625,14.321l12.504,13.558l12.412,11.903l12.347,9.732" style="fill:none;fill-rule:nonzero;stroke:#20eaac;stroke-opacity:0.6;stroke-width:1.98px;stroke-linecap:square;"/></g><g id="line2d_56"><path d="M376.991,1337.527l13.824,-13.477l13.84,-12.926l13.858,-12.278l13.875,-11.555l13.889,-10.779l13.899,-9.972l13.902,-9.159l13.899,-8.365l13.887,-7.623l13.866,-6.97l13.835,-6.455l13.793,-6.136l13.741,-6.082l13.679,-6.371l13.608,-7.085l13.53,-8.294l13.45,-10.052l13.373,-12.367l13.306,-15.191l13.254,-18.397l13.224,-21.771l13.221,-25.012l13.245,-27.751l13.293,-29.592l13.356,-30.167l13.423,-29.205l13.478,-26.603l13.506,-22.468l13.495,-17.129l13.439,-11.097l13.339,-4.979l13.204,0.622l13.048,5.218l12.885,8.503l12.73,10.384l12.594,10.956l12.484,10.452l12.4,9.177l12.34,7.445" style="fill:none;fill-rule:nonzero;stroke:#32f298;stroke-opacity:0.6;stroke-width:1.98px;stroke-linecap:square;"/></g><g id="line2d_57"><path d="M391.489,1352.414l13.826,-13.445l13.833,-13.032l13.841,-12.534l13.849,-11.966l13.855,-11.34l13.859,-10.67l13.859,-9.967l13.855,-9.249l13.844,-8.538l13.827,-7.867l13.802,-7.277l13.768,-6.824l13.725,-6.576l13.673,-6.609l13.613,-7.004l13.546,-7.834l13.477,-9.15l13.41,-10.97l13.35,-13.254l13.304,-15.895l13.275,-18.712l13.269,-21.447l13.284,-23.787l13.318,-25.397l13.362,-25.97l13.407,-25.279l13.44,-23.238l13.447,-19.934l13.421,-15.631l13.357,-10.744l13.256,-5.763l13.128,-1.178l12.984,2.612l12.837,5.353l12.698,6.961l12.578,7.505l12.48,7.168l12.405,6.192l12.351,4.83" style="fill:none;fill-rule:nonzero;stroke:#46f884;stroke-opacity:0.6;stroke-width:1.98px;stroke-linecap:square;"/></g><g id="line2d_58"><path d="M406.071,1368.389l13.838,-13.198l13.83,-12.993l13.824,-12.726l13.82,-12.399l13.815,-12.01l13.811,-11.56l13.806,-11.045l13.799,-10.469l13.79,-9.842l13.777,-9.187l13.76,-8.538l13.735,-7.948l13.703,-7.484l13.663,-7.223l13.615,-7.248l13.56,-7.635l13.502,-8.445l13.444,-9.7l13.39,-11.378l13.347,-13.396l13.318,-15.604l13.305,-17.789l13.309,-19.693l13.327,-21.042l13.352,-21.581l13.375,-21.128l13.387,-19.61l13.376,-17.094l13.338,-13.787l13.269,-10.01l13.172,-6.148l13.054,-2.584l12.925,0.37l12.796,2.511l12.677,3.768l12.573,4.192l12.49,3.922l12.425,3.148l12.378,2.066" style="fill:none;fill-rule:nonzero;stroke:#5dfc6f;stroke-opacity:0.6;stroke-width:1.98px;stroke-linecap:square;"/></g><g id="line2d_59"><path d="M420.714,1385.198l13.856,-12.789l13.831,-12.849l13.808,-12.876l13.788,-12.858l13.771,-12.776l13.757,-12.612l13.746,-12.347l13.738,-11.966l13.731,-11.465l13.723,-10.854l13.714,-10.16l13.7,-9.432l13.68,-8.735l13.653,-8.151l13.617,-7.768l13.574,-7.672l13.526,-7.93l13.475,-8.581l13.426,-9.621l13.384,-10.989l13.35,-12.571l13.329,-14.197l13.32,-15.659l13.321,-16.734l13.326,-17.221l13.329,-16.97l13.321,-15.921l13.296,-14.121l13.249,-11.725l13.179,-8.974l13.088,-6.157l12.983,-3.563l12.871,-1.428l12.762,0.096l12.662,0.952l12.577,1.18l12.508,0.886l12.456,0.214l12.418,-0.682" style="fill:none;fill-rule:nonzero;stroke:#79fe59;stroke-opacity:0.6;stroke-width:1.98px;stroke-linecap:square;"/></g><g id="line2d_60"><path d="M435.392,1402.515l13.874,-12.288l13.831,-12.65l13.791,-13.013l13.756,-13.346l13.726,-13.617l13.703,-13.784l13.686,-13.808l13.677,-13.657l13.672,-13.309l13.671,-12.761l13.671,-12.03l13.668,-11.162l13.661,-10.223l13.646,-9.3l13.622,-8.489l13.589,-7.888l13.549,-7.577l13.504,-7.614l13.457,-8.012l13.412,-8.74l13.372,-9.712l13.341,-10.798l13.317,-11.836l13.3,-12.648l13.286,-13.073l13.27,-12.991l13.246,-12.35l13.209,-11.177l13.156,-9.582l13.087,-7.739l13.004,-5.857l12.913,-4.144l12.82,-2.77l12.731,-1.847l12.651,-1.409l12.585,-1.427l12.533,-1.819l12.495,-2.474l12.467,-3.274" style="fill:none;fill-rule:nonzero;stroke:#8fff49;stroke-opacity:0.6;stroke-width:1.98px;stroke-linecap:square;"/></g><g id="line2d_61"><path d="M450.081,1419.969l13.891,-11.77l13.83,-12.449l13.774,-13.162l13.724,-13.864l13.683,-14.502l13.652,-15.016l13.632,-15.346l13.622,-15.438l13.621,-15.254l13.627,-14.775l13.636,-14.012l13.645,-13.004l13.649,-11.821l13.645,-10.555l13.631,-9.314l13.607,-8.209l13.572,-7.34l13.529,-6.78l13.481,-6.566l13.431,-6.69l13.383,-7.097l13.34,-7.691l13.301,-8.345l13.267,-8.92l13.235,-9.286l13.202,-9.345l13.164,-9.047l13.118,-8.406l13.062,-7.492l12.996,-6.424l12.923,-5.345l12.846,-4.399l12.771,-3.703l12.702,-3.329l12.642,-3.3l12.595,-3.586l12.56,-4.124l12.536,-4.825l12.52,-5.6" style="fill:none;fill-rule:nonzero;stroke:#a4fc3c;stroke-opacity:0.6;stroke-width:1.98px;stroke-linecap:square;"/></g><g id="line2d_62"><path d="M464.76,1437.191l13.903,-11.311l13.827,-12.295l13.757,-13.346l13.695,-14.405l13.646,-15.398l13.609,-16.246l13.587,-16.869l13.579,-17.195l13.583,-17.166l13.596,-16.752l13.614,-15.954l13.632,-14.808l13.646,-13.385l13.652,-11.787l13.646,-10.133l13.626,-8.552l13.594,-7.159l13.55,-6.049l13.498,-5.28l13.441,-4.866l13.383,-4.779l13.326,-4.949l13.273,-5.278l13.223,-5.655l13.175,-5.975l13.128,-6.153l13.08,-6.142l13.027,-5.939l12.97,-5.584l12.909,-5.152l12.846,-4.736l12.783,-4.43l12.725,-4.307l12.675,-4.412l12.634,-4.751l12.605,-5.298l12.586,-5.999l12.576,-6.783l12.573,-7.58" style="fill:none;fill-rule:nonzero;stroke:#b4f836;stroke-opacity:0.6;stroke-width:1.98px;stroke-linecap:square;"/></g><g id="line2d_63"><path d="M479.416,1453.843l13.907,-10.975l13.821,-12.231l13.741,-13.583l13.672,-14.955l13.616,-16.261l13.577,-17.403l13.555,-18.283l13.55,-18.81l13.56,-18.912l13.58,-18.546l13.606,-17.705l13.633,-16.423l13.654,-14.775l13.666,-12.869l13.664,-10.84l13.646,-8.831l13.612,-6.977l13.565,-5.391l13.506,-4.149l13.441,-3.287l13.371,-2.795l13.302,-2.626l13.235,-2.702l13.171,-2.933l13.111,-3.228l13.053,-3.512l12.996,-3.736l12.94,-3.884l12.884,-3.972l12.828,-4.043l12.775,-4.15l12.726,-4.349l12.684,-4.685l12.65,-5.178l12.627,-5.825l12.613,-6.597l12.609,-7.449l12.612,-8.323l12.62,-9.16" style="fill:none;fill-rule:nonzero;stroke:#c3f134;stroke-opacity:0.6;stroke-width:1.98px;stroke-linecap:square;"/></g><g id="line2d_64"><path d="M494.039,1469.653l13.905,-10.815l13.812,-12.288l13.727,-13.877l13.654,-15.498l13.598,-17.05l13.559,-18.42l13.54,-19.497l13.539,-20.174l13.554,-20.367l13.58,-20.023l13.613,-19.128l13.645,-17.715l13.671,-15.862l13.685,-13.689l13.683,-11.34l13.664,-8.974l13.626,-6.744l13.572,-4.777l13.505,-3.167l13.429,-1.964l13.349,-1.174l13.268,-0.763l13.189,-0.668l13.114,-0.809l13.044,-1.107l12.979,-1.489l12.918,-1.904l12.861,-2.326l12.807,-2.751l12.758,-3.198l12.714,-3.694l12.677,-4.268l12.648,-4.941l12.629,-5.721l12.619,-6.595l12.619,-7.535l12.627,-8.501l12.641,-9.444l12.658,-10.314" style="fill:none;fill-rule:nonzero;stroke:#d4e735;stroke-opacity:0.6;stroke-width:1.98px;stroke-linecap:square;"/></g><g id="line2d_65"><path d="M508.63,1484.443l13.896,-10.861l13.802,-12.479l13.716,-14.227l13.645,-16.011l13.591,-17.722l13.556,-19.238l13.541,-20.434l13.545,-21.196l13.565,-21.428l13.596,-21.072l13.633,-20.109l13.667,-18.573l13.694,-16.547l13.707,-14.157l13.701,-11.56l13.676,-8.927l13.631,-6.423l13.568,-4.19l13.492,-2.332l13.407,-0.908l13.317,0.066l13.226,0.616l13.139,0.798l13.056,0.684l12.981,0.353l12.912,-0.125l12.849,-0.695l12.793,-1.322l12.744,-1.989l12.701,-2.698l12.666,-3.458l12.639,-4.279l12.621,-5.171l12.613,-6.129l12.614,-7.138l12.623,-8.172l12.64,-9.194l12.661,-10.163l12.683,-11.036" style="fill:none;fill-rule:nonzero;stroke:#e1dd37;stroke-opacity:0.6;stroke-width:1.98px;stroke-linecap:square;"/></g><g id="line2d_66"><path d="M523.194,1498.142l13.882,-11.122l13.791,-12.804l13.711,-14.618l13.644,-16.468l13.595,-18.24l13.566,-19.805l13.557,-21.034l13.566,-21.805l13.59,-22.02l13.624,-21.615l13.662,-20.572l13.695,-18.926l13.719,-16.765l13.726,-14.221l13.714,-11.461l13.68,-8.663l13.626,-6.002l13.554,-3.627l13.468,-1.648l13.374,-0.128l13.276,0.913l13.179,1.499l13.087,1.685l13.001,1.541l12.923,1.146l12.854,0.572l12.794,-0.123l12.742,-0.896l12.697,-1.722l12.661,-2.591l12.634,-3.501l12.615,-4.453l12.604,-5.446l12.603,-6.475l12.611,-7.523l12.625,-8.566l12.646,-9.574l12.669,-10.511l12.693,-11.343" style="fill:none;fill-rule:nonzero;stroke:#eecf3a;stroke-opacity:0.6;stroke-width:1.98px;stroke-linecap:square;"/></g><g id="line2d_67"><path d="M537.741,1510.791l13.866,-11.584l13.783,-13.243l13.71,-15.029l13.652,-16.844l13.611,-18.574l13.589,-20.09l13.586,-21.261l13.599,-21.966l13.626,-22.106l13.66,-21.618l13.695,-20.486l13.724,-18.748l13.74,-16.497l13.739,-13.87l13.717,-11.038l13.673,-8.185l13.608,-5.488l13.527,-3.098l13.433,-1.124l13.332,0.37l13.229,1.368l13.13,1.896l13.036,2.01l12.952,1.783l12.876,1.297l12.811,0.625l12.756,-0.168l12.709,-1.037l12.671,-1.95l12.641,-2.89l12.62,-3.85l12.606,-4.827l12.6,-5.817l12.602,-6.814l12.611,-7.805l12.626,-8.772l12.645,-9.69l12.666,-10.533l12.686,-11.272" style="fill:none;fill-rule:nonzero;stroke:#f6c33a;stroke-opacity:0.6;stroke-width:1.98px;stroke-linecap:square;"/></g><g id="line2d_68"><path d="M552.287,1522.54l13.849,-12.211l13.777,-13.765l13.715,-15.431l13.668,-17.114l13.636,-18.704l13.621,-20.077l13.623,-21.106l13.64,-21.675l13.666,-21.689l13.698,-21.09l13.727,-19.866l13.748,-18.061l13.754,-15.771l13.742,-13.135l13.708,-10.325l13.652,-7.525l13.577,-4.909l13.487,-2.622l13.387,-0.771l13.283,0.589l13.179,1.448l13.081,1.836l12.991,1.814l12.912,1.463l12.843,0.864l12.785,0.096l12.737,-0.773l12.697,-1.695l12.666,-2.634l12.642,-3.572l12.625,-4.498l12.614,-5.409l12.609,-6.304l12.609,-7.179l12.615,-8.028l12.624,-8.838l12.637,-9.595l12.65,-10.281l12.663,-10.875" style="fill:none;fill-rule:nonzero;stroke:#fbb637;stroke-opacity:0.6;stroke-width:1.98px;stroke-linecap:square;"/></g><g id="line2d_69"><path d="M566.847,1533.636l13.834,-12.948l13.775,-14.326l13.726,-15.791l13.69,-17.258l13.667,-18.624l13.66,-19.774l13.666,-20.591l13.683,-20.966l13.706,-20.815l13.732,-20.087l13.752,-18.779l13.762,-16.937l13.756,-14.659l13.731,-12.087l13.684,-9.389l13.618,-6.741l13.534,-4.309l13.438,-2.229l13.334,-0.598l13.23,0.54l13.129,1.182l13.036,1.368l12.954,1.167l12.883,0.66l12.824,-0.063l12.776,-0.921l12.738,-1.846l12.707,-2.784l12.682,-3.701l12.663,-4.577l12.648,-5.402l12.637,-6.177l12.629,-6.903l12.625,-7.583l12.622,-8.218l12.622,-8.807l12.622,-9.343l12.623,-9.819l12.623,-10.225" style="fill:none;fill-rule:nonzero;stroke:#fea431;stroke-opacity:0.6;stroke-width:1.98px;stroke-linecap:square;"/></g><g id="line2d_70"><path d="M581.437,1544.393l13.823,-13.729l13.778,-14.875l13.742,-16.078l13.716,-17.264l13.702,-18.341l13.699,-19.209l13.707,-19.762l13.722,-19.906l13.741,-19.567l13.757,-18.706l13.767,-17.328l13.764,-15.483l13.744,-13.272l13.705,-10.831l13.646,-8.32l13.57,-5.906l13.479,-3.742l13.38,-1.949l13.277,-0.609l13.176,0.243l13.082,0.619l12.998,0.566l12.927,0.158l12.868,-0.516l12.822,-1.365l12.786,-2.304l12.758,-3.264l12.736,-4.19l12.718,-5.047l12.703,-5.817l12.688,-6.494l12.674,-7.081l12.661,-7.586l12.647,-8.02l12.632,-8.393l12.618,-8.713l12.602,-8.987l12.586,-9.217l12.569,-9.405" style="fill:none;fill-rule:nonzero;stroke:#fe932a;stroke-opacity:0.6;stroke-width:1.98px;stroke-linecap:square;"/></g><g id="line2d_71"><path d="M596.07,1555.172l13.817,-14.477l13.785,-15.356l13.76,-16.259l13.744,-17.125l13.736,-17.876l13.737,-18.428l13.744,-18.691l13.754,-18.587l13.765,-18.058l13.771,-17.074l13.768,-15.65l13.75,-13.841l13.717,-11.744l13.665,-9.489l13.595,-7.226l13.511,-5.106l13.417,-3.265l13.317,-1.809l13.217,-0.803l13.124,-0.267l13.04,-0.179l12.968,-0.485l12.911,-1.103l12.866,-1.941l12.834,-2.905l12.81,-3.91l12.794,-4.884l12.78,-5.774l12.768,-6.546l12.756,-7.184l12.74,-7.683l12.721,-8.053l12.699,-8.31l12.673,-8.472l12.644,-8.558l12.612,-8.59l12.578,-8.582l12.543,-8.551l12.507,-8.507" style="fill:none;fill-rule:nonzero;stroke:#fb7e21;stroke-opacity:0.6;stroke-width:1.98px;stroke-linecap:square;"/></g><g id="line2d_72"><path d="M610.754,1566.341l13.816,-15.119l13.796,-15.719l13.78,-16.31l13.771,-16.844l13.767,-17.261l13.768,-17.493l13.771,-17.468l13.776,-17.124l13.777,-16.419l13.77,-15.338l13.753,-13.899l13.722,-12.162l13.676,-10.219l13.612,-8.192l13.535,-6.215l13.446,-4.423l13.35,-2.933l13.253,-1.832l13.16,-1.168l13.076,-0.949l13.005,-1.143l12.948,-1.688l12.905,-2.499l12.875,-3.48l12.857,-4.538l12.847,-5.586l12.841,-6.555l12.835,-7.391l12.828,-8.062l12.816,-8.554l12.798,-8.867l12.773,-9.016l12.741,-9.022l12.701,-8.912l12.656,-8.715l12.605,-8.462l12.551,-8.18l12.495,-7.894l12.439,-7.627" style="fill:none;fill-rule:nonzero;stroke:#f66c19;stroke-opacity:0.6;stroke-width:1.98px;stroke-linecap:square;"/></g><g id="line2d_73"><path d="M625.495,1578.243l13.821,-15.584l13.808,-15.917l13.8,-16.212l13.794,-16.433l13.791,-16.538l13.79,-16.473l13.788,-16.188l13.784,-15.636l13.774,-14.79l13.756,-13.646l13.726,-12.229l13.682,-10.597l13.624,-8.839l13.552,-7.063l13.469,-5.388l13.378,-3.931l13.284,-2.788l13.193,-2.029l13.109,-1.687l13.036,-1.757l12.978,-2.199l12.936,-2.946l12.908,-3.912l12.893,-5.001l12.888,-6.12l12.889,-7.185l12.892,-8.127l12.893,-8.896l12.889,-9.46l12.877,-9.808l12.856,-9.945l12.823,-9.888l12.78,-9.664l12.727,-9.309l12.665,-8.859l12.597,-8.353l12.524,-7.828l12.449,-7.318l12.374,-6.855" style="fill:none;fill-rule:nonzero;stroke:#f05b12;stroke-opacity:0.6;stroke-width:1.98px;stroke-linecap:square;"/></g><g id="line2d_74"><path d="M640.29,1591.163l13.828,-15.817l13.821,-15.918l13.816,-15.956l13.811,-15.91l13.806,-15.75l13.801,-15.441l13.792,-14.947l13.779,-14.238l13.759,-13.3l13.729,-12.136l13.687,-10.778l13.633,-9.281l13.566,-7.725l13.489,-6.207l13.403,-4.829l13.313,-3.688l13.224,-2.862l13.14,-2.405l13.066,-2.336l13.006,-2.642l12.961,-3.276l12.931,-4.17l12.917,-5.237l12.914,-6.385l12.92,-7.525l12.931,-8.575l12.941,-9.469l12.946,-10.159l12.944,-10.619l12.931,-10.838l12.905,-10.822l12.865,-10.594l12.812,-10.185l12.747,-9.634l12.671,-8.985l12.587,-8.281l12.498,-7.567l12.407,-6.885l12.317,-6.271" style="fill:none;fill-rule:nonzero;stroke:#e7490c;stroke-opacity:0.6;stroke-width:1.98px;stroke-linecap:square;"/></g><g id="line2d_75"><path d="M655.135,1605.301l13.837,-15.782l13.832,-15.703l13.826,-15.546l13.82,-15.299l13.812,-14.945l13.8,-14.462l13.784,-13.829l13.762,-13.029l13.732,-12.057l13.693,-10.923l13.642,-9.659l13.581,-8.318l13.509,-6.972l13.428,-5.702l13.343,-4.595l13.256,-3.73l13.173,-3.17l13.098,-2.953l13.034,-3.089l12.984,-3.558l12.951,-4.311l12.933,-5.28l12.929,-6.384l12.935,-7.535l12.949,-8.649l12.965,-9.648l12.979,-10.474l12.987,-11.081l12.985,-11.444l12.969,-11.557l12.939,-11.427l12.893,-11.078l12.833,-10.543l12.758,-9.864l12.672,-9.086l12.577,-8.258l12.476,-7.428l12.373,-6.639l12.273,-5.933" style="fill:none;fill-rule:nonzero;stroke:#dd3d08;stroke-opacity:0.6;stroke-width:1.98px;stroke-linecap:square;"/></g><g id="line2d_76"><path d="M670.021,1620.751l13.845,-15.465l13.838,-15.272l13.83,-14.993l13.82,-14.627l13.807,-14.163l13.789,-13.592l13.766,-12.901l13.736,-12.083l13.699,-11.138l13.652,-10.082l13.596,-8.945l13.53,-7.775l13.456,-6.633l13.376,-5.589l13.294,-4.713l13.212,-4.07l13.136,-3.709l13.068,-3.656l13.014,-3.916l12.973,-4.464l12.948,-5.254l12.937,-6.221l12.94,-7.291l12.951,-8.384l12.969,-9.422l12.987,-10.337l13.001,-11.074l13.008,-11.594l13.004,-11.875l12.986,-11.911l12.952,-11.712l12.903,-11.301l12.837,-10.71l12.758,-9.981l12.666,-9.159l12.566,-8.292l12.46,-7.427l12.353,-6.609l12.248,-5.878" style="fill:none;fill-rule:nonzero;stroke:#d02f05;stroke-opacity:0.6;stroke-width:1.98px;stroke-linecap:square;"/></g><g id="line2d_77"><path d="M684.934,1637.491l13.849,-14.879l13.838,-14.64l13.826,-14.321l13.81,-13.922l13.792,-13.44l13.769,-12.869l13.74,-12.203l13.705,-11.44l13.662,-10.584l13.612,-9.651l13.553,-8.668l13.487,-7.675l13.414,-6.724l13.337,-5.873l13.259,-5.18l13.184,-4.696l13.114,-4.459l13.054,-4.49l13.006,-4.787l12.971,-5.327l12.95,-6.069l12.943,-6.957l12.946,-7.922l12.958,-8.896l12.974,-9.812l12.99,-10.609l13.001,-11.242l13.005,-11.675l12.998,-11.89l12.977,-11.883l12.941,-11.663l12.89,-11.252l12.824,-10.679l12.745,-9.982l12.654,-9.202l12.555,-8.383l12.451,-7.568l12.346,-6.799l12.244,-6.113" style="fill:none;fill-rule:nonzero;stroke:#c32503;stroke-opacity:0.6;stroke-width:1.98px;stroke-linecap:square;"/></g><g id="line2d_78"><path d="M699.864,1655.386l13.846,-14.057l13.83,-13.843l13.812,-13.562l13.792,-13.215l13.769,-12.799l13.741,-12.312l13.709,-11.749l13.671,-11.109l13.627,-10.396l13.576,-9.623l13.518,-8.812l13.455,-7.997l13.386,-7.219l13.314,-6.525l13.242,-5.963l13.173,-5.573l13.109,-5.387l13.054,-5.42l13.009,-5.672l12.976,-6.123l12.956,-6.739l12.946,-7.473l12.946,-8.27l12.953,-9.072l12.962,-9.824l12.972,-10.477l12.977,-10.993l12.975,-11.342l12.964,-11.509l12.94,-11.493l12.904,-11.299l12.854,-10.947l12.792,-10.461l12.718,-9.872l12.635,-9.215l12.545,-8.526l12.451,-7.841l12.356,-7.194l12.263,-6.616" style="fill:none;fill-rule:nonzero;stroke:#b41b01;stroke-opacity:0.6;stroke-width:1.98px;stroke-linecap:square;"/></g><g id="line2d_79"><path d="M714.799,1674.196l13.836,-13.057l13.814,-12.928l13.791,-12.753l13.766,-12.53l13.739,-12.255l13.709,-11.923l13.676,-11.527l13.639,-11.065l13.596,-10.537l13.548,-9.951l13.495,-9.324l13.437,-8.681l13.374,-8.054l13.309,-7.481l13.244,-7l13.18,-6.645l13.121,-6.442l13.068,-6.408l13.023,-6.543l12.988,-6.835l12.962,-7.259l12.946,-7.779l12.937,-8.356l12.933,-8.944l12.932,-9.502l12.931,-9.991l12.928,-10.382l12.918,-10.652l12.902,-10.791l12.877,-10.794l12.842,-10.668l12.797,-10.426l12.743,-10.086l12.68,-9.67l12.61,-9.203l12.535,-8.712l12.458,-8.222l12.379,-7.758l12.303,-7.342" style="fill:none;fill-rule:nonzero;stroke:#a11201;stroke-opacity:0.6;stroke-width:1.98px;stroke-linecap:square;"/></g><g id="line2d_80"><path d="M729.73,1693.6l13.818,-11.95l13.79,-11.953l13.762,-11.935l13.734,-11.891l13.706,-11.811l13.676,-11.685l13.644,-11.503l13.61,-11.256l13.573,-10.94l13.531,-10.556l13.485,-10.115l13.434,-9.634l13.379,-9.135l13.322,-8.649l13.262,-8.207l13.203,-7.838l13.146,-7.567l13.093,-7.41l13.045,-7.373l13.003,-7.454l12.969,-7.638l12.941,-7.905l12.919,-8.226l12.901,-8.573l12.886,-8.917l12.871,-9.233l12.856,-9.498l12.839,-9.698l12.817,-9.823l12.791,-9.872l12.759,-9.845l12.722,-9.751l12.679,-9.599l12.632,-9.401l12.581,-9.172l12.527,-8.926l12.471,-8.677l12.415,-8.438l12.36,-8.222" style="fill:none;fill-rule:nonzero;stroke:#8e0a01;stroke-opacity:0.6;stroke-width:1.98px;stroke-linecap:square;"/></g><g id="Path3DCollection_2"><g><path id="m2826450d13" d="M817.419,1569.974l24.812,-24.812l-24.812,-24.812l-24.812,24.812l24.812,24.812Z" style="fill:#fbbf24;fill-rule:nonzero;stroke:#fff;stroke-width:3.72px;"/></g></g><g id="line2d_81"><path d="M810.276,843.483l4.486,3.364l3.507,3.81l2.485,4.122l1.435,4.22l0.374,4.014l-0.21,1.807l-0.472,1.596l-0.732,1.318l-0.988,0.966l-1.239,0.536l-1.485,0.023l-1.726,-0.575l-1.959,-1.258l-2.186,-2.023l-2.405,-2.863l-2.616,-3.762l-2.819,-4.704l-6.216,-12.257l-6.929,-15.713l-11.572,-27.403l-4.131,-9.112l-4.248,-8.521l-4.351,-7.534l-4.438,-6.143l-4.507,-4.364l-4.557,-2.239l-4.586,0.17l-4.591,2.777l-4.574,5.483l-4.532,8.181l-4.467,10.765l-4.379,13.138l-4.269,15.219l-4.139,16.949l-3.991,18.29l-3.826,19.228l-7.101,39.714l-6.287,39.125l-5.396,36.47l-4.443,32.55l-3.438,28.07l-2.39,23.549l-1.308,19.31l-0.204,15.52l0.316,6.496l0.595,5.737l0.873,5.038l1.148,4.396l1.421,3.809l1.69,3.272l1.953,2.783l2.211,2.338l2.462,1.935l2.705,1.571l2.938,1.245l3.162,0.954l6.954,1.175l7.711,0.422l12.748,-0.203l18.563,-0.513l9.655,0.15l9.721,0.665l9.646,1.305l9.435,2.015l9.09,2.738l8.619,3.425l8.031,4.036l7.336,4.544l6.545,4.932l5.671,5.198l4.727,5.341l3.725,5.37l2.68,5.291l1.605,5.115l0.514,4.852l-0.153,2.305l-0.426,2.214l-0.697,2.119l-0.965,2.02l-2.72,3.746l-3.741,3.39l-4.713,3.138l-8.757,4.669l-10.549,5.588l-7.873,4.96l-4.149,3.039l-4.27,3.495l-4.376,4.009l-4.465,4.574l-4.536,5.18l-4.59,5.814l-4.625,6.461l-4.641,7.105l-4.637,7.727l-4.615,8.31l-9.084,18.14l-8.766,19.658l-8.305,20.464l-7.713,20.545l-7.001,19.983l-6.182,18.919l-5.27,17.517l-4.277,15.928l-3.218,14.272l-2.107,12.627l-0.959,11.042l-0.042,4.953l0.251,4.59l0.544,4.239l0.836,3.901l1.126,3.576l1.413,3.265l1.695,2.968l1.971,2.686l2.242,2.42l2.504,2.171l2.758,1.94l3.003,1.727l6.698,2.897l7.541,2.295l8.277,1.87l13.536,2.401l24.448,4.279l10.032,2.188l9.963,2.591l9.754,3.043l9.409,3.523l4.534,1.946" style="fill:none;fill-rule:nonzero;stroke:#fff;stroke-width:6.2px;stroke-linecap:square;"/></g></g><g transform="matrix(401.322002,0,0,401.322002,2320.550047,1404.166667)"></g><text x="929.167px" y="1404.167px" style="font-family:'STIXTwoMath-Regular', 'STIX Two Math', serif;font-size:401.322px;fill:#fff;stroke:#000;stroke-opacity:0.85;stroke-width:3.54px;stroke-linejoin:round;stroke-miterlimit:2;">T<tspan x="1159.124px " y="1404.167px ">r</tspan>ueML</text></g></svg>